# xmcd
#
# Track frame offsets: 
#        151
#        14551
#        33581
#        48904
#        66719
#        81930
#        96555
#        113107
#        131086
#        146735
#        164825
#        182719
#
# Disc length: 2732 seconds
#
# Revision: 0
# Processed by: cddbd v1.5.2PL0 Copyright (c) Steve Scherf et al.
# Submitted via: ExactAudioCopy v0.95a4
#
DISCID=bb0aaa0c
DTITLE=The Killer Hayseeds - ...The Good Old Days
DYEAR=2002
DGENRE=Country
TTITLE0=Whistlin' Dixie
TTITLE1=Our World Fell In Love
TTITLE2=Stones
TTITLE3=Renegade
TTITLE4=Don't cha
TTITLE5=Stones and Jones
TTITLE6=Remember the Roses
TTITLE7=You Wouldn't Dance With Me
TTITLE8=She's Gone
TTITLE9=I Believe I Would
TTITLE10=The Good Old Days
TTITLE11=Love Happens
EXTD=
EXTT0=
EXTT1=
EXTT2=
EXTT3=
EXTT4=
EXTT5=
EXTT6=
EXTT7=
EXTT8=
EXTT9=
EXTT10=
EXTT11=
PLAYORDER=
